<?xml version="1.0" encoding="UTF-8"?>
<svg version="1.1" xmlns="http://www.w3.org/2000/svg" width="193" height="172">
<path d="M0 0 C-0.5978482 5.4176219 -1.50355781 10.63500371 -2.8125 15.9296875 C-2.98628174 16.64609406 -3.16006348 17.36250061 -3.33911133 18.10061646 C-3.70344881 19.59851877 -4.06992624 21.0959021 -4.43847656 22.59277344 C-5.00337288 24.88870855 -5.56077698 27.18637023 -6.1171875 29.484375 C-6.47352304 30.94541873 -6.83027867 32.40636009 -7.1875 33.8671875 C-7.43753784 34.89681107 -7.43753784 34.89681107 -7.69262695 35.94723511 C-8.88406111 40.76812222 -8.88406111 40.76812222 -10 43 C-13.99455527 42.38545304 -16.74466336 40.29353263 -20 38 C-21.52649248 39.3268506 -23.04584887 40.66191138 -24.5625 42 C-25.40941406 42.7425 -26.25632813 43.485 -27.12890625 44.25 C-29.33016327 46.35841489 -31.29021891 48.43642914 -33.26953125 50.73828125 C-37.32946862 55.45265464 -41.70384956 59.81400707 -46.125 64.1875 C-46.91003906 64.96802734 -47.69507813 65.74855469 -48.50390625 66.55273438 C-50.01047147 68.05040756 -51.51798906 69.54712353 -53.02661133 71.04272461 C-55.35795173 73.35502895 -57.6802517 75.67607197 -60 78 C-63.66666667 81.66666667 -67.33333333 85.33333333 -71 89 C-74.10679808 87.64728932 -75.87784343 86.2463722 -78.00390625 83.625 C-82.97531406 77.75223414 -88.47939155 72.41348717 -93.9375 67 C-95.01390654 65.92862113 -96.09008014 64.85700818 -97.16601562 63.78515625 C-99.77466745 61.18740362 -102.38644471 58.59282038 -105 56 C-108.71191514 58.41773457 -111.76745925 60.55166057 -114.5625 64 C-117.16406547 67.09683067 -119.83890977 69.47112781 -123 72 C-123.98124908 73.10180959 -124.94235263 74.2216566 -125.89111328 75.3515625 C-131.05068745 81.30729807 -136.66811407 86.8122315 -142.2421875 92.375 C-143.41820619 93.55169341 -144.59407649 94.72853514 -145.76980591 95.90551758 C-148.21731394 98.3544906 -150.66659851 100.80166869 -153.1171875 103.24755859 C-156.26477423 106.38940436 -159.40779055 109.53577825 -162.54952812 112.68347168 C-164.96854753 115.10609158 -167.38992727 117.52634099 -169.81204605 119.94586182 C-170.97305915 121.1062065 -172.1333262 122.26729814 -173.29284286 123.42913818 C-174.9036044 125.04242256 -176.51750691 126.65249544 -178.13232422 128.26171875 C-179.05052948 129.17912842 -179.96873474 130.09653809 -180.9147644 131.04174805 C-183 133 -183 133 -184 133 C-184 95.71 -184 58.42 -184 20 C-176.41 20 -168.82 20 -161 20 C-160.67 38.15 -160.34 56.3 -160 75 C-158.35 73.02 -156.7 71.04 -155 69 C-153.71966139 67.81833874 -152.40973323 66.66728635 -151.0625 65.5625 C-147.81736756 62.80444185 -145.12546639 59.89510874 -142.42578125 56.61328125 C-141 55 -141 55 -138.0625 52.5625 C-134.86510485 49.88712855 -132.34484957 47.00368538 -129.65234375 43.83984375 C-127.64066417 41.59988847 -125.3487285 39.8789828 -123 38 C-121.83583553 36.70373176 -120.69168306 35.38935187 -119.5625 34.0625 C-117.42452567 31.55189398 -115.32340533 29.31255564 -112.75 27.25 C-110.35552269 25.2908822 -108.70298996 23.55448495 -107 21 C-103.32262389 21.55280817 -101.97653445 22.81937808 -99.6875 25.6875 C-97.43524106 28.39117118 -95.22665762 30.77578266 -92.5 33 C-89.13937701 35.75782066 -86.43205217 38.87918851 -83.625 42.1875 C-81.62516222 44.4180883 -79.3477091 46.14654544 -77 48 C-75.24629658 49.94211784 -73.63040588 51.95034689 -72 54 C-69.4060342 52.05452565 -67.19384765 50.24732286 -65.1875 47.6875 C-63.26692563 45.3279372 -61.43022415 43.580285 -59.125 41.625 C-55.86184248 38.84527323 -53.1460783 35.92090605 -50.4296875 32.6171875 C-48.2173285 30.11468305 -45.56258172 28.13548477 -43 26 C-40.91762033 23.73220296 -38.94150066 21.38900968 -37 19 C-37.969375 18.2575 -38.93875 17.515 -39.9375 16.75 C-42.65369485 14.66951032 -43.28531801 13.30948173 -44 10 C-38.53934574 8.5680968 -33.07669636 7.14417157 -27.61206055 5.72753906 C-25.75407107 5.24469188 -23.89664146 4.75968491 -22.03979492 4.27246094 C-19.36782436 3.57175686 -16.6939243 2.87889241 -14.01953125 2.1875 C-13.19226028 1.96876221 -12.36498932 1.75002441 -11.51264954 1.5246582 C-7.59200847 0.51887915 -4.08597742 -0.28850679 0 0 Z " fill="#2DA27A" transform="translate(187,4)"/>
<path d="M0 0 C1.62717467 3.25434934 1.07777214 6.82541797 1.02172852 10.39697266 C1.01212097 11.26533249 1.00251343 12.13369232 0.99261475 13.02836609 C0.95955641 15.90701229 0.91925015 18.78550994 0.87890625 21.6640625 C0.85461181 23.65660066 0.83076792 25.64914437 0.80735779 27.64169312 C0.74444957 32.8926422 0.67540204 38.14349351 0.60510254 43.39434814 C0.53447988 48.74983253 0.46962663 54.10538639 0.40429688 59.4609375 C0.27519771 69.97403467 0.13961672 80.48703762 0 91 C-30.28029022 94.95988907 -30.28029022 94.95988907 -41.02441406 86.78125 C-47.01543132 81.85222161 -52.15250438 76.0094433 -57.19488525 70.13970947 C-59.61704242 67.36256585 -62.14498909 64.6850704 -64.6640625 61.99609375 C-69.54697277 56.754035 -74.30967058 51.41560219 -79 46 C-80.12868808 46.94638038 -81.25442442 47.89628186 -82.37890625 48.84765625 C-83.00611572 49.37625244 -83.6333252 49.90484863 -84.27954102 50.44946289 C-86.14530675 52.04524752 -86.14530675 52.04524752 -87.9375 54.4375 C-89.8342522 56.79407092 -91.70794172 58.54562987 -94 60.5 C-96.26836139 62.43477883 -98.13049472 64.1631184 -100 66.5 C-101.85436031 68.81795039 -103.68631471 70.52168682 -105.9375 72.4375 C-108.411352 74.54688025 -110.40312369 76.48374843 -112.5 79 C-115.17112986 82.20535583 -118.05817769 84.79126366 -121.23046875 87.484375 C-123.08344907 89.03207632 -123.08344907 89.03207632 -125 91 C-127.50920846 91.17495606 -129.90624941 91.23169569 -132.4140625 91.1953125 C-133.14370209 91.1924826 -133.87334167 91.18965271 -134.62509155 91.18673706 C-136.95856028 91.17553002 -139.29164703 91.1504251 -141.625 91.125 C-143.20572363 91.11497085 -144.78645327 91.10584489 -146.3671875 91.09765625 C-150.24493914 91.07558905 -154.12240478 91.04105615 -158 91 C-156.50306724 87.5043726 -154.4998151 85.25710864 -151.81323242 82.58618164 C-150.94860886 81.72170914 -150.08398529 80.85723663 -149.19316101 79.96656799 C-148.25672256 79.04045212 -147.32028412 78.11433624 -146.35546875 77.16015625 C-145.38337695 76.1917995 -144.41172941 75.22299661 -143.44050598 74.25376892 C-140.88386148 71.70474908 -138.32127579 69.1617848 -135.75738525 66.62005615 C-133.16215987 64.04521239 -130.57250497 61.46478025 -127.98242188 58.88476562 C-123.41214348 54.33360525 -118.83698363 49.78739689 -114.25822449 45.24476624 C-111.83382105 42.83481142 -109.41615984 40.41821746 -107 38 C-91 22 -91 22 -88.921875 19.93359375 C-87.77027825 18.77497507 -86.63045313 17.60419585 -85.515625 16.41015625 C-83.79826289 14.58148363 -82.22360235 13.11878875 -80 11.9375 C-76.68191085 12.04119029 -75.37438023 13.73605606 -73 16 C-71.22605471 17.99881159 -69.48786837 20.02502694 -67.75390625 22.05859375 C-65.89867789 24.20379691 -65.89867789 24.20379691 -63 26.5 C-60.70346879 28.413776 -59.0862928 29.99990532 -57.21484375 32.25 C-51.36688018 39.01339064 -44.9017877 45.2028523 -38.5625 51.5 C-37.24520941 52.81226585 -35.92815014 54.12476395 -34.61132812 55.4375 C-31.4102139 58.62768506 -28.20598135 61.81470651 -25 65 C-24.99589111 63.75387939 -24.99178223 62.50775879 -24.98754883 61.22387695 C-24.96574633 56.59227362 -24.91144485 51.96151846 -24.84741211 47.33032227 C-24.82424189 45.32747539 -24.80983868 43.32450683 -24.80444336 41.3215332 C-24.79514667 38.43884546 -24.75414094 35.55806881 -24.70703125 32.67578125 C-24.7109639 31.78288895 -24.71489655 30.88999664 -24.71894836 29.970047 C-24.61722259 25.61737818 -24.51313346 23.63848447 -21.71435547 20.15600586 C-20.81861816 19.44452393 -19.92288086 18.73304199 -19 18 C-17.62045312 16.61001053 -16.24152955 15.21940209 -14.86328125 13.828125 C-13.3464096 12.30202824 -11.8294812 10.77598787 -10.3125 9.25 C-9.54099609 8.47011719 -8.76949219 7.69023438 -7.97460938 6.88671875 C-7.23662109 6.14550781 -6.49863281 5.40429688 -5.73828125 4.640625 C-5.06837158 3.96547852 -4.39846191 3.29033203 -3.70825195 2.59472656 C-2 1 -2 1 0 0 Z " fill="#2BA377" transform="translate(161,72)"/>
<path d="M0 0 C1.62717467 3.25434934 1.07777214 6.82541797 1.02172852 10.39697266 C1.01212097 11.26533249 1.00251343 12.13369232 0.99261475 13.02836609 C0.95955641 15.90701229 0.91925015 18.78550994 0.87890625 21.6640625 C0.85461181 23.65660066 0.83076792 25.64914437 0.80735779 27.64169312 C0.74444957 32.8926422 0.67540204 38.14349351 0.60510254 43.39434814 C0.53447988 48.74983253 0.46962663 54.10538639 0.40429688 59.4609375 C0.27519769 69.9740367 0.13908384 80.48702814 0 91 C-6.93 91 -13.86 91 -21 91 C-21 90.67 -21 90.34 -21 90 C-15.06 89.67 -9.12 89.34 -3 89 C-4.3715625 88.17371094 -5.743125 87.34742188 -7.15625 86.49609375 C-14.14183686 81.48992025 -20.60650084 76.09556221 -22.58673096 67.43347168 C-23.63228405 60.24648139 -23.66916094 53.06111408 -23.5625 45.8125 C-23.55444336 44.75618378 -23.54638672 43.69986755 -23.53808594 42.61154175 C-23.49332658 39.53507986 -23.38992871 36.46821975 -23.25390625 33.39453125 C-23.22450455 32.46788666 -23.19510284 31.54124207 -23.16481018 30.58651733 C-22.70273357 23.82480011 -20.54206387 19.96006457 -16 15 C-15.3615918 14.28142822 -14.72318359 13.56285645 -14.06542969 12.82250977 C-13.52305664 12.28424561 -12.98068359 11.74598145 -12.421875 11.19140625 C-11.81859375 10.59005859 -11.2153125 9.98871094 -10.59375 9.36914062 C-9.9853125 8.77294922 -9.376875 8.17675781 -8.75 7.5625 C-8.12609375 6.93923828 -7.5021875 6.31597656 -6.859375 5.67382812 C-2.28231456 1.14115728 -2.28231456 1.14115728 0 0 Z " fill="#28A076" transform="translate(161,72)"/>
<path d="M0 0 C7.59 0 15.18 0 23 0 C23.33 18.81 23.66 37.62 24 57 C23.34 57 22.68 57 22 57 C22 38.85 22 20.7 22 2 C15.07 2 8.14 2 1 2 C1 37.31 1 72.62 1 109 C1.99 109.33 2.98 109.66 4 110 C2.68 110.99 1.36 111.98 0 113 C0 75.71 0 38.42 0 0 Z " fill="#90CABB" transform="translate(3,24)"/>
<path d="M0 0 C2 0.3125 2 0.3125 4 1 C4.495 1.99 4.495 1.99 5 3 C4.2469458 3.10038574 3.4938916 3.20077148 2.71801758 3.30419922 C-0.31427289 4.0804525 -1.35834463 4.89735951 -3.48828125 7.1328125 C-4.10856201 7.77114014 -4.72884277 8.40946777 -5.36791992 9.06713867 C-6.33048706 10.08578003 -6.33048706 10.08578003 -7.3125 11.125 C-8.64657995 12.50050196 -9.98249787 13.87422387 -11.3203125 15.24609375 C-11.95614258 15.90077637 -12.59197266 16.55545898 -13.24707031 17.22998047 C-15.86743161 19.87588847 -18.64124135 22.30691788 -21.48828125 24.703125 C-23.19883288 26.13155453 -23.19883288 26.13155453 -25.375 28.4375 C-27 30 -27 30 -29 30 C-29.2401181 30.56543518 -29.48023621 31.13087036 -29.72763062 31.71343994 C-31.26612072 34.47824242 -33.1133075 36.35289796 -35.35791016 38.58496094 C-36.25869293 39.48559265 -37.15947571 40.38622437 -38.08755493 41.31414795 C-39.07128408 42.28766481 -40.0551225 43.26107125 -41.0390625 44.234375 C-42.04555128 45.23713161 -43.05159789 46.24033222 -44.05722046 47.24395752 C-46.69962147 49.87873813 -49.34797428 52.50745611 -51.99761963 55.13494873 C-54.70256052 57.81939688 -57.40181821 60.50954622 -60.1015625 63.19921875 C-65.39550174 68.47173618 -70.69574283 73.73786057 -76 79 C-76 76 -76 76 -74.32527161 73.96450806 C-73.54093246 73.18683075 -72.75659332 72.40915344 -71.94848633 71.60791016 C-71.06369095 70.72334137 -70.17889557 69.83877258 -69.26728821 68.92739868 C-68.28902177 67.96446495 -67.31059884 67.00169019 -66.33203125 66.0390625 C-65.33444445 65.04707431 -64.33752046 64.05441916 -63.3412323 63.06112671 C-60.7110996 60.44246126 -58.07209535 57.8329155 -55.43115234 55.22515869 C-52.76062974 52.58514771 -50.09840325 49.93680194 -47.43554688 47.2890625 C-42.73355361 42.61579013 -38.02428366 37.94997982 -33.30964661 33.28945923 C-30.86574989 30.86692329 -28.43167864 28.43479522 -26 26 C-17.33333333 17.33333333 -8.66666667 8.66666667 0 0 Z " fill="#BFDED8" transform="translate(80,84)"/>
<path d="M0 0 C1.75 0.875 1.75 0.875 2.75 2.875 C2.00274658 2.97031006 1.25549316 3.06562012 0.4855957 3.16381836 C-2.64989266 3.97896139 -3.79077118 4.94762409 -6.01953125 7.25390625 C-6.68017578 7.92744141 -7.34082031 8.60097656 -8.02148438 9.29492188 C-8.69501953 10.00197266 -9.36855469 10.70902344 -10.0625 11.4375 C-10.75537109 12.14841797 -11.44824219 12.85933594 -12.16210938 13.59179688 C-13.8674517 15.34418312 -15.56275176 17.10521469 -17.25 18.875 C-17.91 18.545 -18.57 18.215 -19.25 17.875 C-18.80269531 17.36710937 -18.35539062 16.85921875 -17.89453125 16.3359375 C-15.08550016 13.13759506 -12.28960892 9.94511974 -9.625 6.625 C-3.7246988 -0.20692771 -3.7246988 -0.20692771 0 0 Z " fill="#7DC5AD" transform="translate(82.25,84.125)"/>
<path d="M0 0 C0.33 0 0.66 0 1 0 C1 15.51 1 31.02 1 47 C1.99 47.33 2.98 47.66 4 48 C2.68 48.99 1.36 49.98 0 51 C0 34.17 0 17.34 0 0 Z " fill="#48A192" transform="translate(3,86)"/>
<path d="M0 0 C0.33 0 0.66 0 1 0 C1 5.94 1 11.88 1 18 C1.99 18.33 2.98 18.66 4 19 C2.68 19.99 1.36 20.98 0 22 C0 14.74 0 7.48 0 0 Z " fill="#66ADA5" transform="translate(3,115)"/>
</svg>
